<svg width="31" height="31" viewBox="0 0 31 31" fill="none" xmlns="http://www.w3.org/2000/svg">
<path fill-rule="evenodd" clip-rule="evenodd" d="M0 3.1C0 1.38792 1.38786 0 3.09987 0H27.8988C29.6107 0 30.9986 1.38783 30.9987 3.09983L31 11.3691L29.3457 10.1261C27.7914 8.9583 25.8608 8.26667 23.7656 8.26667C18.6296 8.26667 14.466 12.4304 14.466 17.5667C14.466 19.6619 15.1576 21.5926 16.3254 23.147L16.5326 23.4227V31H3.09987C1.38786 31 0 29.6121 0 27.9V3.1ZM16.5326 10.3333H6.19973V8.26667H16.5326V10.3333ZM6.19973 16.5333H12.3995V14.4667H6.19973V16.5333Z" fill="#A6BFC0"/>
<path fill-rule="evenodd" clip-rule="evenodd" d="M23.7656 10.3333C19.7709 10.3333 16.5326 13.5718 16.5326 17.5667C16.5326 19.5375 17.3208 21.3243 18.5992 22.6289V29.9667C18.5992 30.3581 18.8203 30.7159 19.1704 30.8909C19.5204 31.0659 19.9393 31.0282 20.2525 30.7933L23.7656 28.1583L27.2788 30.7933C27.5919 31.0282 28.0108 31.0659 28.3609 30.8909C28.711 30.7159 28.9321 30.3581 28.9321 29.9667V22.6289C30.2104 21.3243 30.9987 19.5375 30.9987 17.5667C30.9987 13.5718 27.7603 10.3333 23.7656 10.3333ZM20.6658 27.9V24.1039C21.6053 24.5502 22.6563 24.8 23.7656 24.8C24.875 24.8 25.926 24.5502 26.8655 24.1039V27.9L24.3856 26.04C24.0182 25.7644 23.5131 25.7644 23.1457 26.04L20.6658 27.9Z" fill="#A6BFC0"/>
</svg>
