<svg width="30" height="30" viewBox="0 0 30 30" fill="none" xmlns="http://www.w3.org/2000/svg">
<path fill-rule="evenodd" clip-rule="evenodd" d="M0 15C0 6.71573 6.71573 0 15 0C23.2843 0 30 6.71573 30 15C30 23.2843 23.2843 30 15 30C6.71573 30 0 23.2843 0 15ZM15 7C15.3877 7 15.7405 7.22412 15.9053 7.5751L17.8417 11.7007L22.151 12.3587C22.5215 12.4152 22.8293 12.6743 22.9483 13.0297C23.0673 13.3851 22.9775 13.7773 22.7158 14.0456L19.5682 17.2715L20.3134 21.839C20.3751 22.2169 20.2155 22.5969 19.9024 22.8175C19.5894 23.038 19.1778 23.0605 18.8427 22.8752L15 20.7509L11.1574 22.8752C10.8222 23.0605 10.4107 23.038 10.0976 22.8175C9.78456 22.5969 9.62495 22.2169 9.68662 21.839L10.4318 17.2715L7.28428 14.0456C7.02251 13.7773 6.93276 13.3851 7.05177 13.0297C7.17077 12.6743 7.47855 12.4152 7.84909 12.3587L12.1583 11.7007L14.0948 7.5751C14.2595 7.22412 14.6123 7 15 7Z" fill="#A6BFC0"/>
</svg>
