<svg width="41" height="30" viewBox="0 0 41 30" fill="none" xmlns="http://www.w3.org/2000/svg">
<path d="M20.6274 0.514893L31.275 0.514893L28.3174 8.20483L20.6274 0.514893Z" fill="#A6BFC0"/>
<path d="M40.4264 9.00017H30.1543L33.0076 1.58141L40.4264 9.00017Z" fill="#A6BFC0"/>
<path d="M9.15104 0.514893L12.1088 8.20508L19.799 0.514893L9.15104 0.514893Z" fill="#A6BFC0"/>
<path d="M10.2718 9.00017L7.41851 1.58166L5.05762e-07 9.00017H10.2718Z" fill="#A6BFC0"/>
<path d="M14.1421 9.00017H26.2843L20.2132 2.92911L14.1421 9.00017Z" fill="#A6BFC0"/>
<path d="M22.0079 29.4187L29.3753 11.0002L40.4264 11.0002L22.0079 29.4187Z" fill="#A6BFC0"/>
<path d="M20.213 28.5206L27.2212 11.0002H13.2048L20.213 28.5206Z" fill="#A6BFC0"/>
<path d="M11.0508 11.0002L18.418 29.4181L0 11.0002L11.0508 11.0002Z" fill="#A6BFC0"/>
</svg>
