<svg width="35" height="20" viewBox="0 0 35 20" fill="none" xmlns="http://www.w3.org/2000/svg">
<path d="M33.7679 17.5533C33.7679 17.4195 33.6341 17.4195 33.6341 17.2856C33.0988 16.2151 31.8945 14.8769 30.2887 13.405C29.4857 12.7359 29.0843 12.2006 28.8167 11.933C28.4152 11.3977 28.4152 10.9962 28.549 10.461C28.6829 10.0595 29.2181 9.39042 30.1548 8.18607C30.6901 7.51698 30.9577 7.11554 31.3592 6.71409C33.3664 4.03774 34.3032 2.29811 34.0355 1.4952L33.9017 1.3614C33.7679 1.22758 33.6341 1.09377 33.3664 1.09377C33.0988 0.959949 32.6974 0.959949 32.2959 1.09377H27.2109C27.0771 1.09377 27.077 1.09377 26.8094 1.09377C26.6756 1.09377 26.5418 1.09377 26.5418 1.09377H26.408H26.2741L26.1403 1.22757C26.0065 1.36139 26.0065 1.36138 26.0065 1.4952C25.4712 2.96719 24.8021 4.17155 24.133 5.50972C23.7316 6.17881 23.3302 6.84791 22.9287 7.38318C22.5272 7.91844 22.2596 8.31989 21.992 8.58752C21.7243 8.85516 21.4567 8.98897 21.3229 9.25661C21.1891 9.39043 20.9214 9.52425 20.9214 9.39044C20.7876 9.39044 20.6538 9.39043 20.6538 9.25661C20.52 9.12279 20.3862 8.98897 20.2524 8.85515C20.1185 8.72134 20.1185 8.4537 19.9847 8.18607C19.9847 7.91843 19.9847 7.6508 19.9847 7.51698C19.9847 7.38316 19.9847 6.98172 19.9847 6.71409C19.9847 6.31264 19.9847 6.04499 19.9847 5.91118C19.9847 5.50973 19.9847 4.97447 19.9847 4.4392C19.9847 3.90393 19.9847 3.50247 19.9847 3.23483C19.9847 2.9672 19.9847 2.56575 19.9847 2.29811C19.9847 1.89666 19.9847 1.62902 19.9847 1.4952C19.9847 1.36138 19.8509 1.09376 19.8509 0.959941C19.7171 0.826124 19.5833 0.692302 19.4494 0.558485C19.3156 0.424668 19.048 0.424672 18.9142 0.290854C18.2451 0.157037 17.4422 0.0232239 16.5055 0.0232239C14.3644 0.0232239 12.8924 0.157045 12.3571 0.42468C12.0895 0.558497 11.8219 0.692306 11.6881 0.959941C11.4204 1.22758 11.4204 1.3614 11.5542 1.3614C12.2233 1.49521 12.7586 1.76284 13.0262 2.16429L13.1601 2.43194C13.2939 2.56576 13.2938 2.83338 13.4277 3.23483C13.5615 3.63628 13.5615 4.03773 13.5615 4.573C13.5615 5.37591 13.5615 6.17882 13.5615 6.71409C13.5615 7.38318 13.4277 7.78462 13.4277 8.18607C13.4277 8.58752 13.2939 8.85516 13.1601 8.98898C13.0262 9.25661 13.0262 9.39044 12.8924 9.39044C12.8924 9.39044 12.8924 9.52424 12.7586 9.52424C12.6248 9.52424 12.4909 9.65807 12.2233 9.65807C12.0895 9.65807 11.8219 9.52425 11.6881 9.39044C11.4204 9.25662 11.1528 8.98898 11.019 8.72135C10.7513 8.45371 10.4837 8.05225 10.2161 7.51698C9.94842 6.98171 9.54695 6.44645 9.27932 5.64355L9.01171 5.10829C8.87789 4.84065 8.61026 4.30537 8.34262 3.63629C8.07499 2.9672 7.80734 2.43194 7.53971 1.76285C7.40589 1.49522 7.27209 1.36139 7.13827 1.22757H7.00445C7.00445 1.22757 6.87061 1.09377 6.7368 1.09377C6.60298 1.09377 6.46918 0.959941 6.33536 0.959941H1.51793C0.982661 0.959941 0.71503 1.09375 0.581213 1.22757L0.447388 1.3614C0.447388 1.3614 0.447388 1.49521 0.447388 1.62903C0.447388 1.76284 0.447396 1.89665 0.581213 2.16429C1.2503 3.7701 2.0532 5.37591 2.8561 6.98172C3.65901 8.45371 4.46192 9.79189 4.99719 10.7286C5.66627 11.6653 6.20154 12.6021 6.87062 13.405C7.53971 14.2079 7.94115 14.7431 8.07497 15.0108C8.3426 15.2784 8.47641 15.4122 8.61023 15.546L9.01171 15.9475C9.27934 16.2151 9.68079 16.6166 10.2161 17.018C10.7513 17.4195 11.4204 17.8209 12.0895 18.2224C12.7586 18.6238 13.5615 18.8915 14.3644 19.1591C15.3011 19.4267 16.104 19.5606 16.9069 19.4267H18.9142C19.3156 19.4267 19.5833 19.2929 19.8509 19.0253L19.9847 18.8915C19.9847 18.7576 20.1185 18.7576 20.1185 18.6238C20.1185 18.49 20.1185 18.3562 20.1185 18.0886C20.1185 17.5533 20.1185 17.1518 20.2524 16.7504C20.3862 16.3489 20.3862 16.0813 20.52 15.8137C20.6538 15.546 20.7876 15.4122 20.9214 15.2784C21.0553 15.1446 21.1891 15.0108 21.1891 15.0108H21.3229C21.5905 14.8769 21.992 15.0108 22.2596 15.2784C22.6611 15.546 23.0625 15.9475 23.3301 16.3489C23.5978 16.7504 23.9993 17.1518 24.5345 17.6871C25.0698 18.2224 25.4712 18.6238 25.7389 18.7576L26.1403 19.0253C26.4079 19.1591 26.6756 19.2929 27.077 19.4267C27.4785 19.5606 27.7461 19.5605 28.0137 19.5605L32.5636 19.4267C32.965 19.4267 33.3664 19.2929 33.6341 19.1591C33.9017 19.0253 34.0355 18.8915 34.0355 18.6238C34.0355 18.49 34.0355 18.2224 34.0355 18.0886C33.7679 17.8209 33.7679 17.6871 33.7679 17.5533Z" fill="#D0DDDE"/>
</svg>
